<?xml version="1.0" encoding="UTF-8"?>
<svg xmlns="http://www.w3.org/2000/svg" xmlns:xlink="http://www.w3.org/1999/xlink" width="454.43pt" height="107.91pt" viewBox="0 0 454.43 107.91" version="1.1">
<defs>
<clipPath id="clip1">
  <path d="M 360 0 L 454.429688 0 L 454.429688 94 L 360 94 Z M 360 0 "/>
</clipPath>
<clipPath id="clip2">
  <path d="M 0 81 L 347 81 L 347 107.910156 L 0 107.910156 Z M 0 81 "/>
</clipPath>
</defs>
<g id="surface1">
<path style=" stroke:none;fill-rule:nonzero;fill:rgb(0%,44.699097%,73.699951%);fill-opacity:1;" d="M 314.214844 39.40625 C 317.484375 36.738281 321.753906 33.785156 326.234375 33.785156 C 330.640625 33.785156 332.515625 36.683594 332.515625 43.460938 L 332.515625 69.011719 L 340.839844 69.011719 L 340.839844 41.171875 C 340.839844 30.058594 333.886719 26.121094 327.90625 26.121094 C 322.101563 26.121094 317.613281 28.511719 313.660156 31.261719 C 313.414063 29.851563 312.921875 27.140625 312.921875 27.140625 L 305.878906 27.140625 L 305.878906 69.011719 L 314.214844 69.011719 "/>
<path style=" stroke:none;fill-rule:nonzero;fill:rgb(0%,44.699097%,73.699951%);fill-opacity:1;" d="M 65.382813 7.242188 L 65.382813 26.625 C 63.730469 26.3125 61.871094 26.121094 59.53125 26.121094 C 46.734375 26.121094 37.082031 35.808594 37.082031 48.636719 C 37.082031 61.511719 45.863281 69.855469 59.449219 69.855469 C 65.699219 69.855469 70.675781 68.3125 73.253906 66.851563 L 73.710938 66.589844 L 73.710938 7.242188 Z M 65.382813 62.046875 C 64.109375 62.496094 62.277344 62.785156 60.609375 62.785156 C 50.992188 62.785156 45.496094 57.472656 45.496094 48.203125 C 45.496094 39.75 51.679688 33.367188 59.902344 33.367188 C 62.628906 33.367188 64.015625 33.671875 65.382813 34.121094 "/>
<path style=" stroke:none;fill-rule:nonzero;fill:rgb(0%,44.699097%,73.699951%);fill-opacity:1;" d="M 117.847656 51.332031 L 117.847656 27.140625 L 109.515625 27.140625 L 109.515625 57.925781 C 107.539063 60.175781 103.816406 62.703125 99.355469 62.703125 C 94.398438 62.703125 92.183594 60.113281 92.183594 54.304688 L 92.183594 27.140625 L 83.871094 27.140625 L 83.871094 54.890625 C 83.871094 68.78125 94.300781 69.855469 97.507813 69.855469 C 103.511719 69.855469 108.160156 67.195313 110.574219 65.429688 C 111.066406 66.636719 112.027344 69.011719 112.027344 69.011719 L 119.117188 69.011719 L 118.679688 67.800781 C 118.097656 66.199219 117.847656 63.558594 117.847656 51.332031 "/>
<path style=" stroke:none;fill-rule:nonzero;fill:rgb(0%,44.699097%,73.699951%);fill-opacity:1;" d="M 30.648438 61.429688 L 8.34375 61.429688 L 8.34375 43.277344 L 27.742188 43.277344 L 27.742188 35.777344 L 8.34375 35.777344 L 8.34375 18.960938 L 27.609375 18.960938 L 30.839844 11.375 L 0 11.375 L 0 69.011719 L 30.648438 69.011719 "/>
<path style=" stroke:none;fill-rule:nonzero;fill:rgb(0%,44.699097%,73.699951%);fill-opacity:1;" d="M 246.304688 20.574219 C 249.308594 20.574219 251.738281 18.230469 251.738281 15.347656 C 251.738281 12.464844 249.308594 10.117188 246.304688 10.117188 C 243.300781 10.117188 240.847656 12.464844 240.847656 15.347656 C 240.847656 18.230469 243.300781 20.574219 246.304688 20.574219 "/>
<path style=" stroke:none;fill-rule:nonzero;fill:rgb(0%,44.699097%,73.699951%);fill-opacity:1;" d="M 242.171875 27.140625 L 242.171875 69.011719 L 250.515625 69.011719 L 250.515625 27.140625 L 249.570313 27.140625 "/>
<g clip-path="url(#clip1)" clip-rule="nonzero">
<path style=" stroke:none;fill-rule:nonzero;fill:rgb(92.89856%,10.998535%,14.099121%);fill-opacity:1;" d="M 446.894531 21.328125 L 446.878906 21.332031 C 438.519531 8.507813 424.019531 -0.00390625 407.539063 -0.00390625 C 381.707031 -0.00390625 360.703125 20.886719 360.703125 46.585938 C 360.703125 72.269531 381.707031 93.171875 407.539063 93.171875 C 414.796875 93.171875 421.753906 91.554688 428.097656 88.460938 L 423.6875 81.570313 C 418.664063 83.871094 413.195313 85.070313 407.539063 85.070313 C 386.210938 85.070313 368.832031 67.800781 368.832031 46.585938 C 368.832031 25.355469 386.210938 8.085938 407.539063 8.085938 C 421.347656 8.085938 433.496094 15.328125 440.320313 26.179688 L 440.34375 26.175781 C 445.808594 33.625 450.191406 50.273438 441.78125 58.65625 C 440.050781 60.375 437.550781 62.363281 434.394531 62.363281 C 432.097656 62.363281 430.386719 60.210938 429.566406 59.039063 L 421.394531 47.03125 C 422.074219 46.113281 435.355469 27.363281 435.355469 27.363281 L 424.628906 27.363281 L 411.785156 46.078125 L 411.785156 27.363281 L 402.59375 27.363281 L 402.578125 58.417969 C 402.339844 60.0625 400.992188 63.269531 395.945313 63.269531 C 390.871094 63.269531 389.492188 60.097656 389.207031 58.15625 L 389.222656 27.363281 L 380.203125 27.363281 L 380.203125 58.507813 C 380.203125 59.527344 380.4375 63.089844 383.261719 66.039063 C 386.039063 68.929688 390.007813 70.402344 395.945313 70.402344 C 401.84375 70.402344 405.796875 68.929688 408.617188 66.042969 C 411.644531 62.960938 411.785156 59.144531 411.785156 58.417969 L 411.785156 48.152344 C 413.578125 50.789063 421.585938 63.417969 421.699219 63.558594 C 426.515625 71.042969 433.019531 70.683594 433.9375 70.683594 C 441.4375 70.683594 445.519531 66.804688 447.984375 64.183594 C 458.839844 52.742188 454.242188 31.316406 446.894531 21.328125 "/>
</g>
<path style=" stroke:none;fill-rule:nonzero;fill:rgb(0%,44.699097%,73.699951%);fill-opacity:1;" d="M 233.707031 66.6875 L 234.398438 66.269531 L 231.734375 60.210938 L 230.816406 60.707031 C 229.414063 61.445313 227.054688 62.703125 224.128906 62.703125 C 222.050781 62.703125 220.839844 62.09375 220.839844 58.957031 L 220.839844 34.046875 L 231 34.046875 L 234.121094 27.140625 L 220.839844 27.140625 L 220.839844 15.847656 L 219.589844 16.277344 L 212.519531 18.597656 L 212.519531 27.140625 L 205.71875 27.140625 L 205.71875 34.046875 L 212.519531 34.046875 L 212.519531 60.402344 C 212.519531 66.410156 216.140625 69.855469 222.460938 69.855469 C 226.289063 69.855469 230.082031 68.792969 233.707031 66.6875 "/>
<path style=" stroke:none;fill-rule:nonzero;fill:rgb(0%,44.699097%,73.699951%);fill-opacity:1;" d="M 278.265625 26.121094 C 272.890625 26.121094 268.144531 28.011719 264.527344 31.558594 L 264.511719 31.570313 C 260.601563 35.519531 258.445313 41.367188 258.445313 48.039063 C 258.445313 54.898438 260.601563 60.8125 264.527344 64.671875 C 267.972656 68.054688 272.691406 69.855469 278.183594 69.855469 C 283.769531 69.855469 288.578125 68.03125 292.078125 64.585938 C 296.050781 60.679688 298.257813 54.796875 298.257813 48.039063 C 298.257813 41.367188 296.09375 35.519531 292.175781 31.570313 C 288.554688 28.011719 283.746094 26.121094 278.265625 26.121094 M 278.34375 62.703125 C 271.246094 62.703125 266.863281 57.015625 266.863281 47.871094 C 266.863281 38.679688 271.121094 33.191406 278.265625 33.191406 C 285.507813 33.191406 289.84375 38.679688 289.84375 47.871094 C 289.84375 57.015625 285.4375 62.703125 278.34375 62.703125 "/>
<path style=" stroke:none;fill-rule:nonzero;fill:rgb(0%,44.699097%,73.699951%);fill-opacity:1;" d="M 201.097656 69.011719 L 200.574219 67.773438 C 200.074219 66.589844 199.769531 63.601563 199.769531 52.785156 L 199.769531 40.585938 C 199.769531 31.140625 194.390625 26.121094 184.265625 26.121094 C 178.808594 26.121094 174.046875 27.632813 169.242188 30.859375 L 168.546875 31.332031 L 172.144531 37.433594 L 173.007813 36.835938 C 175.410156 35.179688 178.78125 33.28125 183.558594 33.28125 C 188.929688 33.28125 191.429688 35.6875 191.429688 40.84375 L 191.429688 42.503906 C 189.972656 42.542969 183.878906 42.71875 183.878906 42.71875 C 172.65625 43.0625 166.210938 48.148438 166.210938 56.679688 C 166.210938 65.324219 173.128906 69.855469 179.945313 69.855469 C 184.800781 69.855469 188.929688 68.40625 192.328125 65.675781 C 192.808594 66.804688 193.769531 69.011719 193.769531 69.011719 Z M 191.429688 58.667969 C 189.570313 60.472656 186.59375 62.703125 181.710938 62.703125 C 176.417969 62.703125 174.550781 59.503906 174.550781 56.503906 C 174.550781 53.476563 175.730469 50.34375 184.5625 50.046875 C 184.5625 50.046875 189.355469 49.894531 191.429688 49.8125 "/>
<path style=" stroke:none;fill-rule:nonzero;fill:rgb(0%,44.699097%,73.699951%);fill-opacity:1;" d="M 157.316406 59.882813 C 155.113281 61.195313 152 62.703125 147.421875 62.703125 C 139.695313 62.703125 134.695313 57.011719 134.695313 48.203125 C 134.695313 39.1875 139.753906 33.363281 147.585938 33.363281 C 151.375 33.363281 154.851563 34.316406 157.933594 36.179688 L 159.382813 37.066406 L 159.382813 29.046875 L 158.910156 28.785156 C 155.820313 27.117188 151.703125 26.121094 147.851563 26.121094 C 132.949219 26.121094 126.269531 37.390625 126.269531 48.542969 C 126.269531 59.15625 132.566406 69.855469 146.621094 69.855469 C 153.261719 69.855469 158.4375 67.027344 160.363281 65.820313 L 161.039063 65.394531 L 158.246094 59.335938 "/>
<g clip-path="url(#clip2)" clip-rule="nonzero">
<path style=" stroke:none;fill-rule:evenodd;fill:rgb(0%,44.699097%,73.699951%);fill-opacity:1;" d="M 146.230469 82.761719 C 145.648438 82.761719 144.847656 83.820313 144.847656 84.421875 C 144.847656 85.003906 145.648438 86.03125 146.230469 86.03125 C 146.792969 86.03125 147.609375 84.980469 147.609375 84.421875 C 147.609375 83.851563 146.792969 82.761719 146.230469 82.761719 M 211.761719 98.296875 C 211.152344 98.296875 210.253906 99.503906 210.253906 100.136719 C 210.253906 100.785156 211.140625 101.976563 211.761719 101.976563 C 212.40625 101.976563 213.296875 100.800781 213.296875 100.136719 C 213.296875 99.488281 212.390625 98.296875 211.761719 98.296875 M 198.957031 97.21875 C 198.957031 98.902344 197.636719 100.074219 196.433594 100.074219 C 195.410156 100.074219 194.617188 99.140625 194.617188 97.949219 C 194.617188 96.53125 195.449219 95.546875 196.765625 95.433594 L 198.957031 95.222656 Z M 201.1875 98.472656 L 201.1875 92.371094 C 201.1875 89.5625 199.457031 87.8125 196.679688 87.8125 C 195.382813 87.8125 194.148438 88.171875 193.269531 88.785156 L 193.566406 90.886719 L 193.855469 90.65625 C 194.546875 90.113281 195.65625 89.738281 196.566406 89.738281 C 198.085938 89.738281 198.957031 90.644531 198.957031 92.222656 L 198.957031 93.328125 L 196.46875 93.566406 C 194.621094 93.730469 192.453125 94.976563 192.453125 97.949219 C 192.453125 100.320313 194.058594 101.976563 196.34375 101.976563 C 197.675781 101.976563 198.828125 101.382813 199.511719 100.441406 C 199.847656 101.269531 200.601563 101.847656 201.332031 102 L 202.882813 100.46875 L 202.488281 100.378906 C 202.003906 100.265625 201.1875 99.867188 201.1875 98.472656 M 319.542969 87.8125 C 317.835938 87.8125 316.816406 88.402344 316.21875 89.042969 L 316.195313 88.042969 L 314.128906 88.042969 L 314.128906 101.742188 L 316.355469 101.742188 L 316.355469 92.371094 C 316.355469 90.8125 317.480469 89.769531 319.148438 89.769531 C 320.828125 89.769531 321.789063 90.714844 321.789063 92.371094 L 321.789063 101.742188 L 324.046875 101.742188 L 324.046875 92.195313 C 324.046875 89.574219 322.238281 87.8125 319.542969 87.8125 M 206.964844 98.441406 L 206.964844 81.179688 L 204.746094 81.179688 L 204.746094 98.585938 C 204.746094 100.960938 206.1875 101.792969 207.058594 102.082031 L 208.648438 100.578125 L 208.289063 100.46875 C 207.449219 100.207031 206.964844 99.472656 206.964844 98.441406 M 306.21875 100.019531 C 304.035156 100.019531 302.445313 97.871094 302.445313 94.90625 C 302.445313 91.929688 304.035156 89.769531 306.21875 89.769531 C 308.34375 89.769531 309.945313 91.976563 309.945313 94.90625 C 309.945313 97.820313 308.34375 100.019531 306.21875 100.019531 M 306.21875 87.8125 C 302.65625 87.8125 300.171875 90.730469 300.171875 94.90625 C 300.171875 99.070313 302.65625 101.976563 306.21875 101.976563 C 309.742188 101.976563 312.203125 99.070313 312.203125 94.90625 C 312.203125 90.730469 309.742188 87.8125 306.21875 87.8125 M 158.058594 88.042969 L 155.730469 94.894531 C 155.394531 95.882813 155.132813 96.734375 154.914063 97.523438 L 154.078125 94.890625 L 151.757813 88.042969 L 149.503906 88.042969 L 154.269531 101.917969 L 155.417969 101.917969 L 160.1875 88.042969 Z M 175.761719 98.867188 C 175.097656 99.597656 174.164063 100.019531 173.183594 100.019531 C 170.980469 100.019531 169.386719 97.871094 169.386719 94.90625 C 169.386719 91.929688 170.980469 89.769531 173.183594 89.769531 C 174.152344 89.769531 175.179688 90.21875 175.761719 90.890625 Z M 175.761719 81.179688 L 175.761719 88.523438 C 175.054688 88.089844 174.078125 87.8125 173.121094 87.8125 C 169.578125 87.8125 167.105469 90.730469 167.105469 94.90625 C 167.105469 99.5 170.082031 101.976563 172.878906 101.976563 C 174.152344 101.976563 175.25 101.613281 176.003906 101 L 176.046875 101.742188 L 178.019531 101.742188 L 178.019531 81.179688 Z M 162.355469 101.742188 L 164.597656 101.742188 L 164.597656 88.042969 L 162.355469 88.042969 Z M 188.300781 88.042969 L 188.300781 97.421875 C 188.300781 98.976563 187.191406 100.019531 185.53125 100.019531 C 183.835938 100.019531 182.863281 99.070313 182.863281 97.421875 L 182.863281 88.042969 L 180.636719 88.042969 L 180.636719 97.59375 C 180.636719 100.214844 182.445313 101.976563 185.144531 101.976563 C 186.867188 101.976563 187.867188 101.40625 188.449219 100.785156 L 188.484375 101.742188 L 190.550781 101.742188 L 190.550781 88.042969 Z M 163.492188 82.761719 C 162.910156 82.761719 162.109375 83.820313 162.109375 84.421875 C 162.109375 84.992188 162.921875 86.03125 163.492188 86.03125 C 164.050781 86.03125 164.878906 84.980469 164.878906 84.421875 C 164.878906 83.835938 164.066406 82.761719 163.492188 82.761719 M 274.113281 87.898438 C 272.4375 87.898438 271.140625 88.558594 270.425781 89.65625 L 270.378906 88.042969 L 268.253906 88.042969 L 268.253906 101.742188 L 270.476563 101.742188 L 270.476563 94.46875 C 270.476563 91.761719 271.953125 89.941406 274.144531 89.941406 L 274.703125 89.941406 L 274.308594 87.898438 Z M 281.359375 97.21875 C 281.359375 98.902344 280.035156 100.074219 278.839844 100.074219 C 277.820313 100.074219 277.011719 99.140625 277.011719 97.949219 C 277.011719 96.53125 277.855469 95.546875 279.164063 95.433594 L 281.359375 95.222656 Z M 283.585938 98.472656 L 283.585938 92.371094 C 283.585938 89.5625 281.855469 87.8125 279.078125 87.8125 C 277.792969 87.8125 276.550781 88.171875 275.671875 88.785156 L 275.960938 90.886719 L 276.261719 90.65625 C 276.941406 90.113281 278.058594 89.738281 278.964844 89.738281 C 280.480469 89.738281 281.359375 90.644531 281.359375 92.222656 L 281.359375 93.328125 L 278.871094 93.566406 C 277.015625 93.730469 274.847656 94.976563 274.847656 97.949219 C 274.847656 100.320313 276.453125 101.976563 278.746094 101.976563 C 280.070313 101.976563 281.226563 101.382813 281.914063 100.441406 C 282.246094 101.269531 283.011719 101.847656 283.726563 102 L 285.277344 100.46875 L 284.886719 100.378906 C 284.402344 100.265625 283.585938 99.867188 283.585938 98.472656 M 296.558594 82.761719 C 295.976563 82.761719 295.175781 83.820313 295.175781 84.421875 C 295.175781 85.003906 295.976563 86.03125 296.558594 86.03125 C 297.121094 86.03125 297.945313 84.980469 297.945313 84.421875 C 297.945313 83.851563 297.121094 82.761719 296.558594 82.761719 M 295.414063 101.742188 L 297.671875 101.742188 L 297.671875 88.042969 L 295.414063 88.042969 Z M 243.652344 93.570313 C 242.4375 92.796875 241.820313 92.222656 241.820313 91.199219 C 241.820313 90.351563 242.527344 89.738281 243.503906 89.738281 C 244.464844 89.738281 245.285156 90.089844 245.726563 90.417969 L 246.027344 90.648438 L 246.390625 88.675781 C 245.851563 88.28125 244.761719 87.8125 243.46875 87.8125 C 241.210938 87.8125 239.632813 89.242188 239.632813 91.289063 C 239.632813 93.296875 240.886719 94.472656 242.925781 95.726563 C 244.269531 96.539063 244.871094 97.339844 244.871094 98.324219 C 244.871094 99.359375 244.050781 100.050781 242.832031 100.050781 C 241.652344 100.050781 240.464844 99.546875 239.574219 98.660156 L 239.035156 98.117188 L 239.59375 100.941406 C 240.464844 101.617188 241.648438 101.976563 242.894531 101.976563 C 245.410156 101.976563 247.09375 100.472656 247.09375 98.234375 C 247.09375 96.160156 245.777344 94.910156 243.652344 93.570313 M 222.097656 101.742188 L 224.441406 101.742188 L 224.441406 82.640625 L 222.097656 82.640625 Z M 232.925781 87.8125 C 231.222656 87.8125 230.214844 88.402344 229.609375 89.042969 L 229.585938 88.042969 L 227.519531 88.042969 L 227.519531 101.742188 L 229.742188 101.742188 L 229.742188 92.371094 C 229.742188 90.8125 230.867188 89.769531 232.539063 89.769531 C 234.214844 89.769531 235.179688 90.714844 235.179688 92.371094 L 235.179688 101.742188 L 237.433594 101.742188 L 237.433594 92.195313 C 237.433594 89.574219 235.632813 87.8125 232.925781 87.8125 M 262.710938 101.742188 L 264.964844 101.742188 L 264.964844 88.042969 L 262.710938 88.042969 Z M 263.859375 82.761719 C 263.265625 82.761719 262.464844 83.820313 262.464844 84.421875 C 262.464844 84.992188 263.277344 86.03125 263.859375 86.03125 C 264.40625 86.03125 265.230469 84.980469 265.230469 84.421875 C 265.230469 83.851563 264.40625 82.761719 263.859375 82.761719 M 254.128906 100.019531 C 253.144531 100.019531 252.136719 99.578125 251.515625 98.898438 L 251.515625 90.925781 C 252.214844 90.191406 253.15625 89.769531 254.128906 89.769531 C 256.324219 89.769531 257.921875 91.917969 257.921875 94.882813 C 257.921875 97.859375 256.324219 100.019531 254.128906 100.019531 M 254.429688 87.8125 C 253.136719 87.8125 252.078125 88.164063 251.308594 88.796875 L 251.253906 88.042969 L 249.289063 88.042969 L 249.289063 107.910156 L 251.515625 107.910156 L 251.515625 101.257813 C 252.253906 101.699219 253.222656 101.976563 254.1875 101.976563 C 257.730469 101.976563 260.195313 99.054688 260.195313 94.882813 C 260.195313 90.289063 257.234375 87.8125 254.429688 87.8125 M 289.527344 84.222656 L 289.1875 84.390625 L 287.308594 85.328125 L 287.308594 88.042969 L 285.03125 88.042969 L 285.03125 89.941406 L 287.277344 89.941406 L 287.277344 98.351563 C 287.277344 100.519531 288.628906 101.917969 290.71875 101.917969 C 291.257813 101.917969 291.730469 101.839844 292.03125 101.6875 L 292.605469 99.339844 L 292.125 99.683594 C 291.855469 99.871094 291.480469 99.964844 290.957031 99.964844 C 290.039063 99.964844 289.527344 99.371094 289.527344 98.296875 L 289.527344 89.941406 L 293.152344 89.941406 L 293.511719 88.042969 L 289.527344 88.042969 Z M 50.90625 88.042969 L 48.582031 94.894531 C 48.238281 95.882813 47.984375 96.734375 47.765625 97.523438 C 47.511719 96.644531 47.238281 95.738281 46.929688 94.890625 L 44.613281 88.042969 L 42.363281 88.042969 L 47.125 101.917969 L 48.277344 101.917969 L 53.039063 88.042969 Z M 345.246094 98.296875 C 344.644531 98.296875 343.746094 99.503906 343.746094 100.136719 C 343.746094 100.785156 344.628906 101.976563 345.246094 101.976563 C 345.902344 101.976563 346.789063 100.800781 346.789063 100.136719 C 346.789063 99.488281 345.886719 98.296875 345.246094 98.296875 M 68.167969 84.222656 L 67.839844 84.390625 L 65.964844 85.328125 L 65.964844 88.042969 L 63.6875 88.042969 L 63.6875 89.941406 L 65.929688 89.941406 L 65.929688 98.351563 C 65.929688 100.519531 67.273438 101.917969 69.371094 101.917969 C 69.921875 101.917969 70.375 101.839844 70.691406 101.6875 L 71.25 99.339844 L 70.777344 99.683594 C 70.503906 99.871094 70.132813 99.964844 69.601563 99.964844 C 68.683594 99.964844 68.167969 99.371094 68.167969 98.296875 L 68.167969 89.941406 L 71.804688 89.941406 L 72.167969 88.042969 L 68.167969 88.042969 Z M 60.015625 97.21875 C 60.015625 98.902344 58.679688 100.074219 57.503906 100.074219 C 56.46875 100.074219 55.667969 99.140625 55.667969 97.949219 C 55.667969 96.53125 56.519531 95.546875 57.816406 95.433594 L 60.015625 95.222656 Z M 62.25 98.472656 L 62.25 92.371094 C 62.25 89.5625 60.527344 87.8125 57.734375 87.8125 C 56.445313 87.8125 55.207031 88.171875 54.335938 88.785156 L 54.617188 90.886719 L 54.917969 90.65625 C 55.589844 90.113281 56.714844 89.738281 57.625 89.738281 C 59.148438 89.738281 60.015625 90.644531 60.015625 92.222656 L 60.015625 93.328125 L 57.539063 93.566406 C 55.675781 93.730469 53.511719 94.976563 53.511719 97.949219 C 53.511719 100.320313 55.113281 101.976563 57.414063 101.976563 C 58.71875 101.976563 59.886719 101.382813 60.582031 100.441406 C 60.898438 101.269531 61.664063 101.847656 62.382813 102 L 63.933594 100.46875 L 63.554688 100.378906 C 63.058594 100.265625 62.25 99.867188 62.25 98.472656 M 35.75 100.019531 C 33.570313 100.019531 31.984375 97.871094 31.984375 94.90625 C 31.984375 91.929688 33.570313 89.769531 35.75 89.769531 C 37.878906 89.769531 39.480469 91.976563 39.480469 94.90625 C 39.480469 97.820313 37.878906 100.019531 35.75 100.019531 M 35.75 87.8125 C 32.191406 87.8125 29.707031 90.730469 29.707031 94.90625 C 29.707031 99.070313 32.191406 101.976563 35.75 101.976563 C 39.28125 101.976563 41.738281 99.070313 41.738281 94.90625 C 41.738281 90.730469 39.28125 87.8125 35.75 87.8125 M 0.0859375 101.742188 L 2.429688 101.742188 L 2.429688 82.640625 L 0.0859375 82.640625 Z M 10.917969 87.8125 C 9.210938 87.8125 8.203125 88.402344 7.59375 89.042969 L 7.570313 88.042969 L 5.503906 88.042969 L 5.503906 101.742188 L 7.734375 101.742188 L 7.734375 92.371094 C 7.734375 90.8125 8.855469 89.769531 10.523438 89.769531 C 12.199219 89.769531 13.167969 90.714844 13.167969 92.371094 L 13.167969 101.742188 L 15.421875 101.742188 L 15.421875 92.195313 C 15.421875 89.574219 13.609375 87.8125 10.917969 87.8125 M 145.085938 101.742188 L 147.339844 101.742188 L 147.339844 88.042969 L 145.085938 88.042969 Z M 23.277344 87.8125 C 21.566406 87.8125 20.5625 88.402344 19.953125 89.042969 L 19.929688 88.042969 L 17.863281 88.042969 L 17.863281 101.742188 L 20.089844 101.742188 L 20.089844 92.371094 C 20.089844 90.8125 21.214844 89.769531 22.882813 89.769531 C 24.566406 89.769531 25.527344 90.714844 25.527344 92.371094 L 25.527344 101.742188 L 27.777344 101.742188 L 27.777344 92.195313 C 27.777344 89.574219 25.972656 87.8125 23.277344 87.8125 M 103.382813 98.296875 C 102.769531 98.296875 101.878906 99.503906 101.878906 100.136719 C 101.878906 100.785156 102.757813 101.976563 103.382813 101.976563 C 104.027344 101.976563 104.914063 100.800781 104.914063 100.136719 C 104.914063 99.488281 104.011719 98.296875 103.382813 98.296875 M 113.714844 101.742188 L 116.0625 101.742188 L 116.0625 82.640625 L 113.714844 82.640625 Z M 139.636719 98.867188 C 138.96875 99.597656 138.039063 100.019531 137.054688 100.019531 C 134.855469 100.019531 133.253906 97.871094 133.253906 94.90625 C 133.253906 91.929688 134.855469 89.769531 137.054688 89.769531 C 138.023438 89.769531 139.050781 90.21875 139.636719 90.890625 Z M 139.636719 81.179688 L 139.636719 88.523438 C 138.921875 88.089844 137.945313 87.8125 136.988281 87.8125 C 133.449219 87.8125 130.972656 90.730469 130.972656 94.90625 C 130.972656 99.5 133.949219 101.976563 136.75 101.976563 C 138.023438 101.976563 139.117188 101.613281 139.878906 101 L 139.921875 101.742188 L 141.894531 101.742188 L 141.894531 81.179688 Z M 332.453125 97.21875 C 332.453125 98.902344 331.121094 100.074219 329.929688 100.074219 C 328.902344 100.074219 328.105469 99.140625 328.105469 97.949219 C 328.105469 96.53125 328.945313 95.546875 330.253906 95.433594 L 332.453125 95.222656 Z M 334.679688 98.472656 L 334.679688 92.371094 C 334.679688 89.5625 332.953125 87.8125 330.171875 87.8125 C 328.878906 87.8125 327.632813 88.171875 326.765625 88.785156 L 327.054688 90.886719 L 327.347656 90.65625 C 328.039063 90.113281 329.144531 89.738281 330.054688 89.738281 C 331.582031 89.738281 332.453125 90.644531 332.453125 92.222656 L 332.453125 93.328125 L 329.96875 93.566406 C 328.109375 93.730469 325.941406 94.976563 325.941406 97.949219 C 325.941406 100.320313 327.542969 101.976563 329.84375 101.976563 C 331.160156 101.976563 332.3125 101.382813 333.007813 100.441406 C 333.339844 101.269531 334.09375 101.847656 334.816406 102 L 336.371094 100.46875 L 335.980469 100.378906 C 335.492188 100.265625 334.679688 99.867188 334.679688 98.472656 M 124.550781 87.8125 C 122.839844 87.8125 121.828125 88.402344 121.222656 89.042969 L 121.203125 88.042969 L 119.132813 88.042969 L 119.132813 101.742188 L 121.359375 101.742188 L 121.359375 92.371094 C 121.359375 90.8125 122.480469 89.769531 124.15625 89.769531 C 125.832031 89.769531 126.796875 90.714844 126.796875 92.371094 L 126.796875 101.742188 L 129.050781 101.742188 L 129.050781 92.195313 C 129.050781 89.574219 127.242188 87.8125 124.550781 87.8125 M 340.453125 98.441406 L 340.453125 81.179688 L 338.234375 81.179688 L 338.234375 98.585938 C 338.234375 100.960938 339.683594 101.796875 340.546875 102.082031 L 342.136719 100.578125 L 341.78125 100.46875 C 340.945313 100.207031 340.453125 99.472656 340.453125 98.441406 M 75.207031 82.761719 C 74.636719 82.761719 73.835938 83.820313 73.835938 84.421875 C 73.835938 84.992188 74.652344 86.03125 75.207031 86.03125 C 75.765625 86.03125 76.59375 84.980469 76.59375 84.421875 C 76.59375 83.835938 75.777344 82.761719 75.207031 82.761719 M 87.042969 88.042969 L 84.714844 94.894531 C 84.367188 95.882813 84.113281 96.730469 83.902344 97.523438 C 83.644531 96.640625 83.363281 95.730469 83.066406 94.890625 L 80.738281 88.042969 L 78.496094 88.042969 L 83.253906 101.917969 L 84.402344 101.917969 L 89.167969 88.042969 Z M 74.070313 101.742188 L 76.328125 101.742188 L 76.328125 88.042969 L 74.070313 88.042969 Z M 98.074219 93.304688 L 92.21875 93.304688 C 92.578125 91.300781 93.980469 89.714844 95.449219 89.714844 C 97.164063 89.714844 98.089844 91.410156 98.089844 93.007813 Z M 95.378906 87.8125 C 92.671875 87.8125 89.789063 90.304688 89.789063 94.90625 C 89.789063 99 92.359375 101.976563 95.898438 101.976563 C 97.210938 101.976563 98.253906 101.714844 99.171875 101.15625 L 99.804688 98.53125 L 99.300781 98.933594 C 98.351563 99.675781 97.34375 100.019531 96.113281 100.019531 C 95.074219 100.019531 94.136719 99.609375 93.40625 98.835938 C 92.550781 97.9375 92.066406 96.617188 92.066406 95.257813 L 99.046875 95.171875 L 100.195313 94.097656 C 100.28125 93.765625 100.28125 93.238281 100.28125 92.949219 C 100.28125 90.476563 98.746094 87.8125 95.378906 87.8125 "/>
</g>
</g>
</svg>
